<svg xmlns="http://www.w3.org/2000/svg" width="19.5" height="19.5" viewBox="0 0 19.5 19.5">
  <g id="Translate_language" data-name="Translate language" transform="translate(-2.75 -3.016)">
    <path id="Tracé_751" data-name="Tracé 751" d="M8.283,3.766h8.435c2.948,0,4.782,2.081,4.782,5.026v7.947c0,2.945-1.834,5.026-4.783,5.026H8.283c-2.948,0-4.783-2.081-4.783-5.026V8.792C3.5,5.847,5.344,3.766,8.283,3.766Z" fill="none" stroke="#000" stroke-linecap="round" stroke-linejoin="round" stroke-width="1.5"/>
    <path id="Tracé_752" data-name="Tracé 752" d="M13.139,15.75a4.491,4.491,0,0,0,1.989.334,9.1,9.1,0,0,0,1.629-.317" fill="none" stroke="#000" stroke-linecap="round" stroke-linejoin="round" stroke-width="1.5"/>
    <path id="Tracé_753" data-name="Tracé 753" d="M12.508,16.989l2.449-4.8,2.45,4.8" fill="none" stroke="#000" stroke-linecap="round" stroke-linejoin="round" stroke-width="1.5"/>
    <path id="Tracé_754" data-name="Tracé 754" d="M9.309,11.336a6.409,6.409,0,0,0,1.279,2.555,6.643,6.643,0,0,0,.675.7" fill="none" stroke="#000" stroke-linecap="round" stroke-linejoin="round" stroke-width="1.5"/>
    <path id="Tracé_755" data-name="Tracé 755" d="M12.915,9.41a6.674,6.674,0,0,1-5.022,5.909" fill="none" stroke="#000" stroke-linecap="round" stroke-linejoin="round" stroke-width="1.5"/>
    <path id="Tracé_756" data-name="Tracé 756" d="M7.594,9.41h6.949" fill="none" stroke="#000" stroke-linecap="round" stroke-linejoin="round" stroke-width="1.5"/>
    <path id="Tracé_757" data-name="Tracé 757" d="M10.889,8.543v.865" fill="none" stroke="#000" stroke-linecap="round" stroke-linejoin="round" stroke-width="1.5"/>
  </g>
</svg>
